<svg width="120" height="40" viewBox="0 0 120 40" fill="none" xmlns="http://www.w3.org/2000/svg">
  <!-- Background Circle -->
  <circle cx="20" cy="20" r="18" fill="url(#gradient)" stroke="#00D4FF" stroke-width="2"/>
  
  <!-- Financial Icon - Dollar Sign with Chart -->
  <path d="M16 12v2.5M16 25.5V28M12 16.5h8c1.1 0 2 .9 2 2s-.9 2-2 2h-4c-1.1 0-2 .9-2 2s.9 2 2 2h8" 
        stroke="white" stroke-width="2" stroke-linecap="round" stroke-linejoin="round"/>
  
  <!-- Chart Lines -->
  <path d="M24 14l2 2 2-1 2 3" stroke="#FF6B9D" stroke-width="1.5" stroke-linecap="round" stroke-linejoin="round"/>
  <circle cx="24" cy="14" r="1" fill="#FF6B9D"/>
  <circle cx="26" cy="16" r="1" fill="#FF6B9D"/>
  <circle cx="28" cy="15" r="1" fill="#FF6B9D"/>
  <circle cx="30" cy="18" r="1" fill="#FF6B9D"/>
  
  <!-- Text -->
  <text x="44" y="16" font-family="Plus Jakarta Sans, system-ui, sans-serif" font-size="14" font-weight="700" fill="#1A1D47">
    FinanceApp
  </text>
  <text x="44" y="28" font-family="Plus Jakarta Sans, system-ui, sans-serif" font-size="10" font-weight="400" fill="#64748B">
    Personal Finance
  </text>
  
  <!-- Gradient Definition -->
  <defs>
    <linearGradient id="gradient" x1="0%" y1="0%" x2="100%" y2="100%">
      <stop offset="0%" style="stop-color:#1A1D47;stop-opacity:1" />
      <stop offset="100%" style="stop-color:#2D3748;stop-opacity:1" />
    </linearGradient>
  </defs>
</svg> 